<svg width="24" height="24" viewBox="0 0 24 24" fill="none" xmlns="http://www.w3.org/2000/svg">
<path d="M19.6891 5.41452C19.2738 4.96607 18.7806 4.61034 18.2377 4.36763C17.6949 4.12492 17.1131 4 16.5255 4C15.9379 4 15.3561 4.12492 14.8133 4.36763C14.2704 4.61034 13.7772 4.96607 13.3619 5.41452L12.4998 6.34476L11.6377 5.41452C10.7987 4.50912 9.66066 4.00047 8.47407 4.00047C7.28747 4.00047 6.14947 4.50912 5.31042 5.41452C4.47137 6.31992 4 7.5479 4 8.82833C4 10.1088 4.47137 11.3367 5.31042 12.2421L6.1725 13.1724L12.4998 20L18.8271 13.1724L19.6891 12.2421C20.1047 11.7939 20.4344 11.2617 20.6593 10.676C20.8842 10.0902 21 9.46237 21 8.82833C21 8.19428 20.8842 7.56645 20.6593 6.9807C20.4344 6.39494 20.1047 5.86275 19.6891 5.41452Z" stroke="black" stroke-width="2" stroke-linecap="round" stroke-linejoin="round"/>
</svg>
